<?xml version="1.0" encoding="utf-8"?>
<svg version="1.1" id="Layer_1" xmlns="http://www.w3.org/2000/svg" xmlns:xlink="http://www.w3.org/1999/xlink" x="0px" y="0px"
	 viewBox="0 0 655.45 254.75" style="enable-background:new 0 0 655.45 254.75;" xml:space="preserve">
<style type="text/css">
	.st0{fill:#9749E9;}
	.st1{fill:#FFFFFF;}
	.st2{fill:#3D3B3D;}
</style>
<g>
	<g>
		<polygon class="st0" points="572.51,68.98 572.51,-0.12 -0.06,-0.12 -0.06,137.22 118.59,137.22 118.59,219.27 655.2,219.27
			655.2,68.98 		"/>
		<g>
			<g>
				<path class="st1" d="M75.13,3.9v17.96H50.75v74.07H28.33V21.86H3.94V3.9H75.13z"/>
				<path class="st1" d="M180.41,79.68h-34.35l-5.51,16.26h-23.47l33.3-92.03h25.96l33.3,92.03h-23.73L180.41,79.68z M174.64,62.37
					l-11.41-33.69l-11.27,33.69H174.64z"/>
				<path class="st1" d="M258.54,25.47c3.93-7.12,9.42-12.67,16.45-16.65S290,2.86,298.92,2.86c10.92,0,20.28,2.88,28.06,8.65
					s12.98,13.64,15.6,23.6h-24.65c-1.84-3.85-4.44-6.77-7.8-8.78c-3.37-2.01-7.19-3.01-11.47-3.01c-6.91,0-12.5,2.4-16.78,7.21
					c-4.28,4.81-6.42,11.23-6.42,19.27s2.14,14.47,6.42,19.27c4.28,4.81,9.88,7.21,16.78,7.21c4.28,0,8.11-1,11.47-3.02
					c3.36-2.01,5.96-4.94,7.8-8.78h24.65c-2.62,9.96-7.82,17.81-15.6,23.53c-7.78,5.73-17.13,8.59-28.06,8.59
					c-8.91,0-16.89-1.99-23.93-5.96c-7.04-3.98-12.52-9.5-16.45-16.58c-3.93-7.08-5.9-15.16-5.9-24.25
					C252.64,40.7,254.61,32.59,258.54,25.47z"/>
				<path class="st1" d="M415.47,3.9v92.03h-22.42V3.9H415.47z"/>
				<path class="st1" d="M534.65,3.9v17.96h-24.39v74.07h-22.42V21.86h-24.39V3.9H534.65z"/>
				<path class="st1" d="M145.01,184.97h29.37v17.31h-51.79v-92.03h22.42L145.01,184.97L145.01,184.97z"/>
				<path class="st1" d="M244.25,128.2v18.62h30.02v17.31h-30.02v20.19h33.96v17.96h-56.37v-92.03h56.37v17.96L244.25,128.2
					L244.25,128.2z"/>
				<path class="st1" d="M390.56,139.34c-1.66-3.06-4.04-5.4-7.15-7.01c-3.1-1.62-6.75-2.43-10.95-2.43
					c-7.26,0-13.07,2.38-17.44,7.15c-4.37,4.77-6.56,11.12-6.56,19.08c0,8.48,2.29,15.1,6.88,19.86s10.9,7.15,18.94,7.15
					c5.51,0,10.16-1.4,13.96-4.19c3.8-2.8,6.58-6.82,8.32-12.06h-28.45v-16.52h48.77v20.85c-1.66,5.59-4.48,10.8-8.46,15.6
					c-3.98,4.81-9.03,8.7-15.14,11.67c-6.12,2.97-13.02,4.46-20.71,4.46c-9.09,0-17.2-1.99-24.32-5.96
					c-7.12-3.98-12.67-9.5-16.65-16.58c-3.98-7.08-5.96-15.16-5.96-24.25s1.99-17.2,5.96-24.32c3.98-7.12,9.51-12.67,16.58-16.65
					c7.08-3.98,15.16-5.96,24.25-5.96c11.01,0,20.3,2.67,27.86,8c7.56,5.33,12.56,12.72,15.01,22.16h-24.74V139.34z"/>
				<path class="st1" d="M523.37,186.02h-34.35l-5.51,16.26h-23.47l33.3-92.03h25.96l33.3,92.03h-23.73L523.37,186.02z
					 M517.6,168.71l-11.41-33.69l-11.28,33.69H517.6z"/>
				<path class="st1" d="M621.83,184.97h29.37v17.31h-51.79v-92.03h22.42V184.97z"/>
			</g>
		</g>
	</g>
</g>
</svg>
