<svg width="112" height="33" viewBox="0 0 112 33" fill="none" xmlns="http://www.w3.org/2000/svg">
<path fill-rule="evenodd" clip-rule="evenodd" d="M16.8768 8.23085L8.46181 0L0.0234375 8.2261L8.46181 16.475L16.8768 8.23085ZM4.05579 8.25836L8.43596 3.95639L12.8106 8.23837L8.45326 12.5243L4.05579 8.25836Z" fill="#6774F4"/>
<path d="M8.45337 19.0939L0.0234375 10.8701L0.0329519 14.8246L8.46505 23.0707L16.8762 14.8241V10.8701L8.45337 19.0939Z" fill="#6774F4"/>
<path d="M0 21.4204L7.00624 28.2319V33.0004H9.85676V28.2855L16.876 21.4206V17.4662L8.45523 25.7104L0 17.4404V21.4204Z" fill="#6774F4"/>
<path d="M103.254 11.6638H105.659V13.3004C106.948 11.4903 108.907 11.0688 111.04 11.5647V13.6971C108.287 12.8788 105.659 14.8873 105.659 17.7883V25.0534H103.254V11.6638Z" fill="#00080D"/>
<path d="M93.8242 11.6638H96.2294V13.3004C97.5187 11.4903 99.4776 11.0688 101.61 11.5647V13.6971C98.8577 12.8788 96.2294 14.8873 96.2294 17.7883V25.0534H93.8242V11.6638Z" fill="#00080D"/>
<path d="M91.6015 17.7643C91.6511 18.161 91.6263 18.5825 91.5519 18.9296H80.1956C80.1956 21.558 82.6999 23.1449 84.7084 23.1449C86.3697 23.1449 87.907 22.4258 88.7004 20.9133H91.2048C90.1882 23.8392 87.4359 25.3021 84.6836 25.3021C81.237 25.3021 77.7656 22.9713 77.7656 18.3594C77.7656 13.7474 81.1874 11.4414 84.7332 11.4414C88.0558 11.4414 91.3288 13.549 91.6015 17.7643ZM80.2948 16.9212H89.0476C88.5765 14.516 86.6672 13.5738 84.7332 13.5738C82.7743 13.5738 80.7907 14.5408 80.2948 16.9212Z" fill="#00080D"/>
<path d="M73.2306 13.3764V7.69824H75.6606V25.0551H73.2306V23.245C72.2636 24.708 70.4288 25.2535 68.7427 25.2783C64.0563 25.2783 61.6016 22.278 61.6016 18.2859C61.6016 14.4426 64.1803 11.4176 68.7179 11.4176C70.3792 11.4176 72.0653 11.7895 73.2306 13.3764ZM73.2306 18.3355C73.2306 15.1121 70.9495 13.5252 68.6683 13.55C65.7424 13.5996 64.0563 15.9303 64.0315 18.2859C64.0067 21.1126 65.7672 23.1954 68.8418 23.121C71.0734 23.0715 73.2306 21.4845 73.2306 18.3355Z" fill="#00080D"/>
<path d="M47.3711 11.6398H49.8011V13.3011C50.7929 11.8629 52.231 11.4414 53.9171 11.4414C58.0084 11.4414 59.744 13.9953 59.744 17.8386V25.0541H57.3389V17.8634C57.3389 15.3591 56.6942 13.6482 53.8427 13.5986C51.2392 13.549 49.8011 15.4087 49.8011 17.7643V25.0541H47.3711V11.6398Z" fill="#00080D"/>
<path d="M44.2776 25.0541H41.8477L41.8477 14.2639C41.8477 12.9219 42.9356 11.834 44.2776 11.834L44.2776 25.0541Z" fill="#00080D"/>
<path d="M44.3714 8.11317L41.9414 8.11317L41.9414 8.45285C41.9414 9.79488 43.0293 10.8828 44.3714 10.8828L44.3714 8.11317Z" fill="#00080D"/>
<path d="M28.3089 7.69824V13.3764C29.4743 11.7895 31.1603 11.4176 32.8216 11.4176C37.3592 11.4176 39.7148 14.6658 39.7148 18.2859C39.7148 21.9805 37.4584 25.2783 32.7721 25.2783C31.1108 25.2535 29.2759 24.708 28.3089 23.245V25.0551H25.8789V7.69824H28.3089ZM28.3089 18.3355C28.3089 21.4845 30.4661 23.0715 32.6729 23.121C35.7475 23.1954 37.3096 20.7407 37.2848 18.2859C37.26 15.9303 35.7971 13.5996 32.8712 13.55C30.5901 13.5252 28.3089 15.1121 28.3089 18.3355Z" fill="#00080D"/>
</svg>
