<?xml version="1.0" encoding="utf-8"?>
<!-- Generator: Adobe Illustrator 27.7.0, SVG Export Plug-In . SVG Version: 6.00 Build 0)  -->
<svg version="1.1" id="Layer_1" xmlns="http://www.w3.org/2000/svg" xmlns:xlink="http://www.w3.org/1999/xlink" x="0px" y="0px"
	 viewBox="0 0 655.45 254.75" style="enable-background:new 0 0 655.45 254.75;" xml:space="preserve">
<style type="text/css">
	.st0{fill:#9749E9;}
	.st1{fill:#FFFFFF;}
	.st2{fill:#3D3B3D;}
</style>
<g>
	<g>
		<polygon class="st0" points="572.51,68.98 572.51,-0.12 -0.06,-0.12 -0.06,137.22 118.59,137.22 118.59,219.27 655.2,219.27 
			655.2,68.98 		"/>
		<g>
			<g>
				<path class="st1" d="M75.13,3.9v17.96H50.75v74.07H28.33V21.86H3.94V3.9H75.13z"/>
				<path class="st1" d="M180.41,79.68h-34.35l-5.51,16.26h-23.47l33.3-92.03h25.96l33.3,92.03h-23.73L180.41,79.68z M174.64,62.37
					l-11.41-33.69l-11.27,33.69H174.64z"/>
				<path class="st1" d="M258.54,25.47c3.93-7.12,9.42-12.67,16.45-16.65S290,2.86,298.92,2.86c10.92,0,20.28,2.88,28.06,8.65
					s12.98,13.64,15.6,23.6h-24.65c-1.84-3.85-4.44-6.77-7.8-8.78c-3.37-2.01-7.19-3.01-11.47-3.01c-6.91,0-12.5,2.4-16.78,7.21
					c-4.28,4.81-6.42,11.23-6.42,19.27s2.14,14.47,6.42,19.27c4.28,4.81,9.88,7.21,16.78,7.21c4.28,0,8.11-1,11.47-3.02
					c3.36-2.01,5.96-4.94,7.8-8.78h24.65c-2.62,9.96-7.82,17.81-15.6,23.53c-7.78,5.73-17.13,8.59-28.06,8.59
					c-8.91,0-16.89-1.99-23.93-5.96c-7.04-3.98-12.52-9.5-16.45-16.58c-3.93-7.08-5.9-15.16-5.9-24.25
					C252.64,40.7,254.61,32.59,258.54,25.47z"/>
				<path class="st1" d="M415.47,3.9v92.03h-22.42V3.9H415.47z"/>
				<path class="st1" d="M534.65,3.9v17.96h-24.39v74.07h-22.42V21.86h-24.39V3.9H534.65z"/>
				<path class="st1" d="M145.01,184.97h29.37v17.31h-51.79v-92.03h22.42L145.01,184.97L145.01,184.97z"/>
				<path class="st1" d="M244.25,128.2v18.62h30.02v17.31h-30.02v20.19h33.96v17.96h-56.37v-92.03h56.37v17.96L244.25,128.2
					L244.25,128.2z"/>
				<path class="st1" d="M390.56,139.34c-1.66-3.06-4.04-5.4-7.15-7.01c-3.1-1.62-6.75-2.43-10.95-2.43
					c-7.26,0-13.07,2.38-17.44,7.15c-4.37,4.77-6.56,11.12-6.56,19.08c0,8.48,2.29,15.1,6.88,19.86s10.9,7.15,18.94,7.15
					c5.51,0,10.16-1.4,13.96-4.19c3.8-2.8,6.58-6.82,8.32-12.06h-28.45v-16.52h48.77v20.85c-1.66,5.59-4.48,10.8-8.46,15.6
					c-3.98,4.81-9.03,8.7-15.14,11.67c-6.12,2.97-13.02,4.46-20.71,4.46c-9.09,0-17.2-1.99-24.32-5.96
					c-7.12-3.98-12.67-9.5-16.65-16.58c-3.98-7.08-5.96-15.16-5.96-24.25s1.99-17.2,5.96-24.32c3.98-7.12,9.51-12.67,16.58-16.65
					c7.08-3.98,15.16-5.96,24.25-5.96c11.01,0,20.3,2.67,27.86,8c7.56,5.33,12.56,12.72,15.01,22.16h-24.74V139.34z"/>
				<path class="st1" d="M523.37,186.02h-34.35l-5.51,16.26h-23.47l33.3-92.03h25.96l33.3,92.03h-23.73L523.37,186.02z
					 M517.6,168.71l-11.41-33.69l-11.28,33.69H517.6z"/>
				<path class="st1" d="M621.83,184.97h29.37v17.31h-51.79v-92.03h22.42V184.97z"/>
			</g>
		</g>
	</g>
	<rect x="118.6" y="219.25" class="st2" width="297.71" height="35.83"/>
	<g>
		<path class="st1" d="M143.05,241.69h-6.4l-1.1,3.12h-2.62l5.48-15.31h2.9l5.48,15.31h-2.64L143.05,241.69z M142.35,239.65
			l-2.49-7.11l-2.51,7.11H142.35z"/>
		<path class="st1" d="M159.5,233.11c0.7-1.19,1.64-2.12,2.84-2.78c1.2-0.67,2.5-1,3.93-1c1.63,0,3.08,0.4,4.35,1.2
			c1.27,0.8,2.19,1.93,2.76,3.4h-3.01c-0.4-0.81-0.95-1.41-1.65-1.8c-0.7-0.4-1.52-0.59-2.44-0.59c-1.01,0-1.91,0.23-2.71,0.68
			c-0.79,0.46-1.41,1.11-1.86,1.96s-0.67,1.84-0.67,2.97s0.22,2.12,0.67,2.97s1.07,1.51,1.86,1.97s1.69,0.69,2.71,0.69
			c0.92,0,1.74-0.2,2.44-0.59c0.7-0.4,1.25-1,1.65-1.8h3.01c-0.57,1.47-1.49,2.6-2.76,3.39c-1.27,0.79-2.72,1.19-4.35,1.19
			c-1.44,0-2.75-0.33-3.94-1s-2.13-1.59-2.83-2.78s-1.04-2.53-1.04-4.03S158.8,234.3,159.5,233.11z"/>
		<path class="st1" d="M198.62,229.53v15.29h-2.51v-6.69h-7.19v6.69h-2.51v-15.29h2.51v6.56h7.19v-6.56H198.62z"/>
		<path class="st1" d="M214.55,229.53v15.29h-2.51v-15.29H214.55z"/>
		<path class="st1" d="M230.48,231.55v4.49h5.28v2.05h-5.28v4.69h5.94v2.05h-8.45v-15.31h8.45v2.05h-5.94V231.55z"/>
		<path class="st1" d="M262.8,229.53l-5.74,15.29h-2.9l-5.76-15.29h2.68l4.53,12.72l4.55-12.72H262.8z"/>
		<path class="st1" d="M277.51,231.55v4.49h5.28v2.05h-5.28v4.69h5.94v2.05H275v-15.31h8.45v2.05h-5.94V231.55z"/>
		<path class="st1" d="M328.6,229.53v15.29h-2.51v-10.47l-4.66,10.47h-1.74L315,234.35v10.47h-2.51v-15.29h2.71l5.37,11.99
			l5.35-11.99H328.6z"/>
		<path class="st1" d="M345.06,243.97c-1.2-0.67-2.14-1.6-2.84-2.79c-0.7-1.2-1.04-2.54-1.04-4.04s0.35-2.84,1.04-4.03
			c0.7-1.19,1.64-2.12,2.84-2.78c1.2-0.67,2.5-1,3.93-1c1.44,0,2.75,0.33,3.95,1s2.14,1.6,2.83,2.78c0.69,1.19,1.03,2.53,1.03,4.03
			s-0.34,2.84-1.03,4.04s-1.63,2.13-2.83,2.79c-1.2,0.67-2.51,1-3.95,1C347.57,244.97,346.26,244.64,345.06,243.97z M351.7,242.1
			c0.79-0.46,1.41-1.12,1.86-1.98c0.45-0.86,0.67-1.85,0.67-2.98s-0.22-2.12-0.67-2.97s-1.07-1.5-1.86-1.96
			c-0.79-0.45-1.69-0.68-2.71-0.68s-1.91,0.23-2.71,0.68c-0.79,0.46-1.41,1.11-1.86,1.96c-0.45,0.85-0.67,1.84-0.67,2.97
			s0.22,2.12,0.67,2.98c0.45,0.86,1.07,1.52,1.86,1.98s1.69,0.69,2.71,0.69S350.91,242.56,351.7,242.1z"/>
		<path class="st1" d="M377.33,244.82l-3.52-6.12h-1.91v6.12h-2.51v-15.29h5.28c1.17,0,2.17,0.21,2.98,0.62s1.42,0.96,1.83,1.65
			c0.4,0.69,0.6,1.46,0.6,2.31c0,1-0.29,1.9-0.87,2.72c-0.58,0.81-1.47,1.37-2.67,1.66l3.78,6.34L377.33,244.82L377.33,244.82z
			 M371.89,236.7h2.77c0.94,0,1.65-0.23,2.12-0.7c0.48-0.47,0.71-1.1,0.71-1.89s-0.23-1.41-0.7-1.86c-0.47-0.45-1.18-0.67-2.13-0.67
			h-2.77L371.89,236.7L371.89,236.7z"/>
		<path class="st1" d="M395.92,231.55v4.49h5.28v2.05h-5.28v4.69h5.94v2.05h-8.45v-15.31h8.45v2.05h-5.94V231.55z"/>
	</g>
</g>
</svg>
